HIERARCHY
ROOT Hips
{
	OFFSET	0.00	0.00	0.00
	CHANNELS 6 Xposition Yposition Zposition Zrotation Xrotation Yrotation
	JOINT LeftUpLeg
	{
		OFFSET	 0.126116	-0.014019	-0.065224
		CHANNELS 3 Zrotation Xrotation Yrotation
		JOINT LeftLeg
		{
			OFFSET	 0.000000	 0.000000	 0.569914
			CHANNELS 3 Zrotation Xrotation Yrotation
			JOINT LeftFoot
			{
				OFFSET	 0.000000	 0.000000	 0.544423
				CHANNELS 3 Zrotation Xrotation Yrotation
				JOINT LeftToeBase
				{
					OFFSET	 0.000000	 0.000000	 0.207117
					CHANNELS 3 Zrotation Xrotation Yrotation
					End Site
					{
						OFFSET	 0.000000	 0.000000	 0.207117
					}
				}
			}
		}
	}
	JOINT RightUpLeg
	{
		OFFSET	-0.124023	-0.008373	-0.065224
		CHANNELS 3 Zrotation Xrotation Yrotation
		JOINT RightLeg
		{
			OFFSET	 0.000000	 0.000000	 0.570047
			CHANNELS 3 Zrotation Xrotation Yrotation
			JOINT RightFoot
			{
				OFFSET	 0.000000	 0.000000	 0.544354
				CHANNELS 3 Zrotation Xrotation Yrotation
				JOINT RightToeBase
				{
					OFFSET	 0.000000	 0.000000	 0.207540
					CHANNELS 3 Zrotation Xrotation Yrotation
					End Site
					{
						OFFSET	 0.000000	 0.000000	 0.207540
					}
				}
			}
		}
	}
	JOINT Spine
	{
		OFFSET	 0.000184	-0.007763	 0.117403
		CHANNELS 3 Zrotation Xrotation Yrotation
		JOINT Spine1
		{
			OFFSET	 0.000000	 0.000000	 0.137269
			CHANNELS 3 Zrotation Xrotation Yrotation
			JOINT Spine2
			{
				OFFSET	 0.000000	 0.000000	 0.156879
				CHANNELS 3 Zrotation Xrotation Yrotation
				JOINT LeftShoulder
				{
					OFFSET	 0.080501	-0.002496	 0.160144
					CHANNELS 3 Zrotation Xrotation Yrotation
					JOINT LeftArm
					{
						OFFSET	 0.000000	 0.000000	 0.164363
						CHANNELS 3 Zrotation Xrotation Yrotation
						JOINT LeftForeArm
						{
							OFFSET	 0.000000	 0.000000	 0.364576
							CHANNELS 3 Zrotation Xrotation Yrotation
							JOINT LeftHand
							{
								OFFSET	 0.000000	 0.000000	 0.360812
								CHANNELS 3 Zrotation Xrotation Yrotation
								JOINT LeftHandIndex1
								{
									OFFSET	 0.000000	 0.000000	 0.086006
									CHANNELS 3 Zrotation Xrotation Yrotation
									JOINT LeftHandIndex2
									{
										OFFSET	 0.000000	 0.000000	 0.047236
										CHANNELS 3 Zrotation Xrotation Yrotation
										JOINT LeftHandIndex3
										{
											OFFSET	-0.004284	-0.000551	 0.038166
											CHANNELS 3 Zrotation Xrotation Yrotation
											End Site
											{
												OFFSET	-0.004284	-0.000551	 0.038166
											}
										}
									}
								}
							}
						}
					}
				}
				JOINT Neck
				{
					OFFSET	 0.000000	 0.000000	 0.176489
					CHANNELS 3 Zrotation Xrotation Yrotation
					JOINT Head
					{
						OFFSET	 0.000000	-0.001747	 0.077940
						CHANNELS 3 Zrotation Xrotation Yrotation
						End Site
						{
							OFFSET	 0.000000	-0.001747	 0.077940
						}
					}
				}
				JOINT RightShoulder
				{
					OFFSET	-0.080363	 0.000306	 0.159706
					CHANNELS 3 Zrotation Xrotation Yrotation
					JOINT RightArm
					{
						OFFSET	 0.000000	 0.000000	 0.164196
						CHANNELS 3 Zrotation Xrotation Yrotation
						JOINT RightForeArm
						{
							OFFSET	 0.000000	 0.000000	 0.365611
							CHANNELS 3 Zrotation Xrotation Yrotation
							JOINT RightHand
							{
								OFFSET	 0.000000	 0.000000	 0.360648
								CHANNELS 3 Zrotation Xrotation Yrotation
								JOINT RightHandIndex1
								{
									OFFSET	 0.000000	 0.000000	 0.069977
									CHANNELS 3 Zrotation Xrotation Yrotation
									JOINT RightHandIndex2
									{
										OFFSET	 0.000000	 0.000000	 0.052305
										CHANNELS 3 Zrotation Xrotation Yrotation
										JOINT RightHandIndex3
										{
											OFFSET	 0.009002	-0.000782	 0.042196
											CHANNELS 3 Zrotation Xrotation Yrotation
											End Site
											{
												OFFSET	 0.009002	-0.000782	 0.042196
											}
										}
									}
								}
							}
						}
					}
				}
			}
		}
	}
}
MOTION
Frames:    5
Frame Time: 0.03333334
-0.094628	 6.812023	 1.267095	-97.526510	 1.187558	 0.341733	-25.258620	-6.552192	-178.165700	 17.583220	-41.538680	 5.683505	-92.843990	 75.393830	 70.643240	-2.187212	 47.521690	-0.499407	 10.777830	-5.032307	-171.819500	-9.276731	-37.751530	-0.726365	 47.893190	 74.473460	-32.888020	 1.953975	 56.534930	 0.860773	-27.950460	 6.492705	 0.290114	 5.362322	 6.043905	 1.813169	-6.609074	-22.178940	-1.459466	-91.229260	 83.958310	 178.242600	 37.932200	 50.203290	-67.997040	-23.786100	 9.111161	-15.371630	 48.520720	-6.654441	-10.731480	-11.761300	 9.720036	-26.313490	-5.213937	-0.202400	 3.566957	-1.378229	 35.397820	-2.634230	-1.604563	 4.252733	 2.671055	-6.991636	-12.913550	-15.055820	 87.726750	 87.419040	-176.798700	-8.697345	 70.264980	-7.392783	 16.142320	 9.614743	 53.706040	-42.484230	-13.375600	 4.833049	-1.100422	 24.949100	-61.880680	 5.070519	-0.690904	-9.399550	-2.350882	 35.473990	 5.254307
-0.090870	 6.838422	 1.268495	-91.267870	 2.146376	 1.261012	-28.101660	-8.153985	 179.767400	 19.323280	-43.416730	 7.102335	-90.183650	 74.048160	 67.970870	-2.219985	 45.657060	-0.439221	 5.177739	-4.131618	-173.329500	-6.642271	-35.196190	 0.834866	 42.471890	 76.455710	-28.239690	 2.073921	 52.529570	 0.684760	-29.281310	 5.793055	-0.029230	 4.714794	 7.680240	 0.722592	-4.487466	-24.876090	-0.604621	-91.229370	 83.958370	 178.242700	 31.971930	 51.507080	-60.301010	-21.540670	 8.443713	-14.965310	 47.554080	-3.882137	-9.812155	-11.140720	 9.605305	-24.019540	-5.213937	-0.202400	 3.566957	-1.378229	 35.397820	-2.634230	 1.581924	 5.719785	-1.226382	-3.982206	-16.885620	-9.340960	 87.726750	 87.419040	-176.798700	-7.662416	 69.053110	-7.910552	 15.853410	 8.653592	 54.569850	-41.854610	-9.348306	 6.448470	-1.705103	 24.185620	-62.529240	 5.070519	-0.690904	-9.399550	-2.350882	 35.473990	 5.254307
-0.089469	 6.845586	 1.268872	-89.625680	 2.442297	 1.407874	-28.669370	-8.677478	 179.241400	 19.714840	-43.903100	 7.441368	-88.963610	 73.769260	 66.811210	-2.234320	 44.764420	-0.411632	 3.672780	-3.952730	-173.662400	-5.922191	-34.519470	 1.229086	 40.486820	 76.941700	-26.528550	 2.083911	 52.140970	 0.669259	-29.506400	 5.639342	-0.061323	 4.464870	 8.177530	 0.416487	-3.724576	-25.707320	-0.261473	-91.229340	 83.958270	 178.242700	 29.409360	 52.178220	-57.400040	-20.870480	 8.218691	-14.817170	 46.621410	-3.241105	-9.212983	-11.055740	 9.399936	-23.556300	-5.213937	-0.202400	 3.566957	-1.378229	 35.397820	-2.634230	 2.640729	 6.254167	-2.502315	-2.931080	-18.096240	-7.448214	 87.727110	 87.418960	-176.799100	-7.567445	 68.742860	-7.800029	 15.679250	 8.252722	 54.833000	-41.731930	-8.276549	 6.883646	-1.523692	 24.472430	-62.588300	 5.070519	-0.690904	-9.399550	-2.350882	 35.473990	 5.254307
-0.085975	 6.861504	 1.269516	-86.046930	 3.116532	 1.541332	-29.539970	-10.004760	 178.223400	 20.276940	-44.950930	 7.984371	-85.152890	 73.332170	 63.328290	-2.276827	 41.761440	-0.323900	 0.411123	-3.638234	-174.215900	-4.274002	-33.081050	 2.085287	 35.223290	 77.805170	-22.064390	 2.031293	 54.082380	 0.749274	-29.668070	 5.270559	-0.061542	 3.826867	 9.478660	-0.217581	-1.742208	-27.615950	 0.658829	-91.229330	 83.958340	 178.242600	 21.857020	 54.110650	-49.483460	-19.172450	 7.641731	-14.426840	 43.388190	-2.154225	-7.234939	-11.096680	 8.593937	-23.085830	-5.213937	-0.202400	 3.566957	-1.378229	 35.397820	-2.634230	 5.339293	 7.376996	-5.826560	-0.095950	-20.607580	-2.415241	 87.727070	 87.418960	-176.799000	-7.583213	 68.058130	-7.233017	 15.262260	 7.216594	 55.481250	-41.331480	-5.970183	 7.815596	-0.430544	 26.073930	-62.463050	 5.070519	-0.690904	-9.399550	-2.350882	 35.473990	 5.254307
-0.083776	 6.876819	 1.269453	-82.958900	 3.060817	 1.739724	-29.017890	-10.638450	 177.522400	 20.524430	-45.892770	 8.294092	-82.634130	 73.147350	 61.154520	-2.271199	 42.194580	-0.336108	-2.531992	-2.566923	-174.693700	-2.653007	-31.569020	 2.852835	 33.321030	 79.074950	-21.004640	 2.121220	 50.593750	 0.609895	-28.886860	 5.350045	-0.027162	 3.486336	 10.970880	-1.474922	 0.297304	-28.970350	 2.129807	-91.229190	 83.958340	 178.242500	 14.519410	 54.762130	-42.114550	-19.225830	 7.005860	-13.951210	 38.495590	-1.169936	-5.673048	-10.890200	 8.669802	-22.425790	-5.213937	-0.202400	 3.566957	-1.378229	 35.397820	-2.634230	 7.657125	 8.612607	-7.968269	 2.481862	-23.008340	 1.935639	 87.727010	 87.419040	-176.799000	-8.485089	 67.325350	-5.574248	 15.539570	 6.679505	 56.307960	-39.970910	-3.908530	 8.733089	-1.167857	 25.117890	-63.103260	 5.070519	-0.690904	-9.399550	-2.350882	 35.473990	 5.254307
